<svg xmlns="http://www.w3.org/2000/svg" width="1211" height="702.44" viewBox="0 0 1211 702.44">
  <g id="Vector_Map" data-name="Vector Map" transform="translate(-56.569 -16.241)">
    <g id="Group_28" data-name="Group 28" transform="translate(56.569 23.756)">
      <path id="Path_1" data-name="Path 1" d="M876.309,774.1c.3-.156.579-.308.843-.457a1.789,1.789,0,0,1-.331-.44c-.161.293-.329.587-.519.882A.085.085,0,0,1,876.309,774.1Z" transform="translate(-326.7 -273.203)" fill="#fefefe"/>
      <path id="Path_2" data-name="Path 2" d="M798.448,456.725c-.062.125-.131.23-.2.345.758-.275,1.518-.548,2.278-.824-.064.008-.125.021-.189.029C799.681,456.349,798.632,456.351,798.448,456.725Z" transform="translate(-300.979 -168.753)" fill="#fefefe"/>
      <path id="Path_3" data-name="Path 3" d="M328.159,102.166c1.2,1.013,2.49-.168,3.746-.636,4.667-1.739,12.007,2.28,13.028,7.071.172.807.451,2.078.051,2.44-2.851,2.584-1.432,5.47-1.195,8.473.143,1.813.243,2.7,2.058,3.125,2.146.508,3.621-.575,3.6-2.359-.048-3.465,2.333-3.922,4.617-4.125,6.894-.615,13.425-3.322,20.526-3.088,2.446.08,3.9.377,4.76,2.431,1.439,3.439,4.019,3.789,7.351,3.551,6.77-.483,7.865.735,6.921,7.408-.491,3.473-1.47,6.878-2.262,10.306a3.534,3.534,0,0,1-3.519,3.027,3.558,3.558,0,0,0-3.573,3.566c-.361,5.184-3.094,9.555-4.654,14.323-2.261,6.912,1.767,12.4,9.1,12.3,4.219-.055,7.154,3.1,6.581,8.2-.686,6.094-2.952,11.9-.542,18.3.925,2.456-.677,5.9-1.251,8.872-.506,2.619-2.234,3.564-4.8,3.093-.249.438-.694.864-.719,1.315-.356,6.392-3.942,8.866-10.039,10.255-5.406,1.232-8.031.8-9.47-4.7-.779-2.973-4.257-4.112-7.329-1.964a77.047,77.047,0,0,0-11.521,10.276c-1.74,1.831-2.806,3.469-.96,6.061.882,1.238.479,3.1-.253,4.825-2.5,5.877-1.092,9.339,4.233,12.309,2.13,1.188,3.341,3.547,5.872,4.55,1.6.636,1.081,2.563-.329,3.726-2.723,2.245-5.344,4.686-8.772,5.815a8.791,8.791,0,0,0-3.607,2.528c-8.623,8.762-8.634,11.089-.439,20.342,5.393,6.089,11.211,11.953,13.391,20.216a5.546,5.546,0,0,0,1.49,2.59c2.784,2.526,4.652,5.955,2.272,8.893-2.651,3.273-7.258,3.072-11.317,2.5-1.768-.249-1.838-1.77-2.012-3.481-.54-5.319-1.519-10.6-6.645-13.777-1.513-.937-1.551-2.357-1.691-3.944-.437-4.969-3.624-6.678-7.741-4.136-4.322,2.669-8.153,2.931-11.581-1.439-1.424-1.815-2.949-3.435-4.894-.231-1.517,2.5-3.9.677-5.941.816-7.2.491-12.928-2.508-17.56-7.458-2.782-2.974-6.316-2.9-9.583-3.576-2.953-.611-4.119,2.757-3.044,5.7,1.7,4.649,6.694,5.221,9.376,8.52.507.624,1.036.333,1.724-.027,5.69-2.974,5.7-2.946,9.059,3.788,1.147-2.116,1.6-5.355,4.253-4.726,3.466.821,5.383,4.483,6.3,7.171,2.133,6.268,3.9,12.652,6.291,18.876,1.179,3.07.86,6.688,4.66,8.2.279.111.687.522.648.715-1.6,7.969,6.319,6.113,9.6,8.893,2.51,2.129,5.96,3.444,6.987,6.748.944,3.038,3.729,2.429,5.431,3.8,7.822,6.282,15.971,12.134,23.773,18.455,5.319,4.309,10.916,8.536,17.468,11.049,1.667.64,3.419,1.194,2.3,3.507-1.1,2.282-2.952,5.268-1.768,6.989,1.553,2.256,4.715,3.6,7.415,4.835a81.967,81.967,0,0,1,19.64,12.942c2.874,2.488,6.352,4.316,9.147,7.107a9.758,9.758,0,0,0,2.436-4.993c1.869-7.947,10.725-12.347,17.987-8.7,2.818,1.415,4.395-1.309,7.106-.815,4.247.776,8.569,1.532,13.259.835,4.425-.658,8.319,3.406,11.542,6.595,4.206,4.162,3.222,3.773,6.685-.746,2.937-3.832,1.535-5.434-.718-8.184-2-2.44-3.221-5.5-5.027-8.118-.979-1.419-1.5-3.442-.726-4.206,3.787-3.73,1.11-6.876-.432-10.19-.98-2.107-2.221-3.08.835-5.8,2.817-2.509,6.4-6.616,6.412-11.814.005-3.281,1.229-6.023,5.6-4.569a4.035,4.035,0,0,0,4.284-.894c3.928-4.224,9.042-6.379,14.154-8.651,1.732-.77,1.431-2.119-.333-2.868-2.31-.98-4.335-2.511-6.99-2.849a6.1,6.1,0,0,1-4.843-3.234,4.162,4.162,0,0,1,1.143-4.593c1.606-1.37,3.211-.262,4.735.32,1.786.681,3.233,3.146,5.385,1.729,2.744-1.806,5.775-3.879,6.629-7.107a5.318,5.318,0,0,0-3.352-6.295c-4.552-1.893-5.045-4.679-1.276-8.051,2.749-2.459,5.028-4.927,6.229-8.727,1.053-3.333,1.844-9.526,8.212-4.83,3.545-2.874,6.009,1.3,9.11,1.426a2.838,2.838,0,0,1,2.79,1.881c1.319,5.034,5.017,2.854,7.5,2.073,7.113-2.237,14.271-1.011,21.286-.411,3.833.328,6.58,4.713,10.97,5.348,5.3.765,10.867,1.421,13.5,7.307a1.732,1.732,0,0,0,2.184.835c5.219-1.558,9.977,3.173,15.209,1.065,5.477,5.495,11.5-.662,17.174.794.473.121,1.313.225,1.461,0,3.856-5.914,11.514-3.585,16.282-7.526.731-.6,2.3-.733,1.951-1.907-1.215-4.047,1.01-7.084,1.931-10.636,1.641-6.329,5.849-10.368,9.633-14.184a30.155,30.155,0,0,0,8.611-21.391c.057-4.553.778-6.133,4.127-8.137,4.119-2.465,3.827-6.322-.342-9.356-.8-.582-1.611-1.149-2.418-1.723h0c-4.772-.105-6.856-5.791-11.862-5.673-1.127.027-1.17-1.812-1.3-3.009-.527-4.939-4.262-7.5-8.056-9.346-2.638-1.281-3.714-2.48-3.2-5.251.426-2.3.136-4.548-2.023-5.839-1.879-1.124-1.724-2.266-1.277-4.177.827-3.533,0-7.867-3.749-8.139a7.5,7.5,0,0,1-6.931-6.681c-.714-6.721-4.167-8.046-9.859-7.777-2.944.139-3.217-2.153-2.163-4.138,2.53-4.763,1.847-6.684-3.3-7.985-1.254-.318-2.965.462-3.724-.987-3.568-6.809-10.8-5.234-16.442-7.273a2.87,2.87,0,0,0-2.393.439c-3.959,3.377-6.265-.156-8.046-2.426a23.181,23.181,0,0,0-5.909-5.289c-2.289-1.425-5.216.442-7.8,1.424-.375-5.915-2.019-7.92-6.627-7.663a9.953,9.953,0,0,0-6.137,1.988c-1.745,1.462-4.835,1.673-5.26-.184-.918-4.019-3.3-4.533-6.549-4.664a2.352,2.352,0,0,1-2.126-1.933c-.79-4-3.57-5.782-7.391-6.435,3.923-4.974,2.008-11.319-3.8-13.477-2.6-.967-4.794,2.371-6.579,1.344-1.616-.931-.383-4.943-3.627-5.477-2.557-.42-3.548-2.28-4.616-4.249-1.5-2.762-3.423-5.292-5.148-7.888-1.893-2.85-4.949-5.635-8.7-1.683-.555.584-1.638,1.631-1.938.743-1.558-4.612-7.309-3.5-9.375-7.059-3.343-5.751-10.236-4.917-15.068-8.079-2.1-1.373-6.288-1.546-8.979-3.283-2.551-1.647-4.7-2.01-7.483-.931-3.049,1.185-4.206-.344-3.445-3.269.436-1.68.283-3.358,1.535-5.069,3.184-4.353-.121-11.132-5.586-12.221C445.1,69.84,442,64.3,442.041,61.532c.077-4.838,2.27-9.733-.666-14.564-2.382-3.917-6.221-5.84-9.447-4.426-4.839,2.122-9.7,7.078-14.885.4a2.127,2.127,0,0,0-2.79-.5c-3.189,2.222-5.83.585-8.179-1.349a10.39,10.39,0,0,0-6.443-2.241c-4.442-.316-9.884-.029-13-2.451-4.857-3.779-10.493-5.022-15.647-7.629-4.691-2.373-5.942-1.739-7.341,3.307-6.451-2.469-7.067-2.277-8.831,2.749-1.633,4.652-4.771,5.447-8.247,1.686a17.457,17.457,0,0,0-6.668-4.4c-4.391-1.706-7.859.462-7.9,4.717-.076,7.208.837,14.534-.19,21.589-.732,5.025-.449,10.692-5.944,14.77-3.673,2.725-7.425,1.757-10.927,3.181-1.76.716-3.665.924-4.258,3.01-.524,1.844.348,3.295,1.792,4.408,3.529,2.719,3.449,6.128,1.157,9.312-1.367,1.9-.571,2.2.869,2.759h0C318.709,98.69,324.161,98.791,328.159,102.166Z" transform="translate(-130.234 -27.45)" fill="#62baef"/>
      <path id="Path_4" data-name="Path 4" d="M1713.48,657.15c-3.756-2.485-8.561-2.167-11.8-3.845-5.767-2.992-10.744-4.7-16.784-2.248a2.123,2.123,0,0,1-2.646-.569,11.159,11.159,0,0,0-11.073-2.99c-2.086.522-3.721.475-4.423-2.465-.689-2.878-6.4-4.828-7.151-2.9-1.918,4.918-7.32,7.272-8.629,12.172-1.032,3.861-3.524,6.368-5.828,9.2-1.6,1.964-4.438,2.2-5.3.74-3.722-6.327-7.7-3.122-11.992-.583-.3-1.021-.495-1.794-.751-2.546-1.922-5.636-5.359-6.644-10.006-2.875-.684.555-1.228,1.065-2.187.9-3.92-.669-7.139,1.165-10.276,3.187-2.029-5.309-3.782-6.921-6.354-5.226-2.547,1.678-5.856,1.556-8.015,4.1-1.237,1.456-3.224,1.536-5.059.368-6.353-4.043-8.045-4.009-13.906.109-3.172,2.229-13.491,1.362-14.241-1.979-.877-3.91-3.442-6.331-5.158-9.379-2.685-4.766-6.663-10.521-12.274-9.417-8.992,1.771-12.072-5.765-17.648-9.039-2.978-1.749-4.526-4.427-8.488-2.09-2.676,1.579-9.821-2.418-9.293-4.855,1.054-4.862-1.2-7.643-5.379-9.183-5.352-1.973-10.595-.744-13.107,3.069-1.893,2.874-2.624,2.984-4.044-.478a6.553,6.553,0,0,0-7.414-3.953c-3.3.568-3.262,3.277-3.407,5.908-.069,1.26.435,2.873-.839,3.794-4.92,3.556-4.539,9.389-6.279,14.308,8.938,5.73,11.527,12.455,8.995,23.716-.484,2.149-.882,3.42,1.37,5.471,2.63,2.394,1.824,7.047,1,10.284a91.679,91.679,0,0,1-4.792,13.6c-2,4.617-4.16,10.313-11.795,10.26-4.977-.035-9.194,4.623-11.709,8.5a74.118,74.118,0,0,1-15.648,17.217c-5.58,4.57-8.4,17.164-5.374,23.593,1.517,3.227,1.192,5.695-1.759,7.854-.848.62-2.125,1.58-1.254,2.92s2.121,1.047,3.569.543c5.45-1.9,12.653.933,16.221,6.11a4.2,4.2,0,0,0,1.608,1.159c2.077,1.033,5.471,2.208,4.422,4.5-1.205,2.632-.858,6.864-5.541,7.59-2.444.379-3.915,2.417-.235,4.013.446.194,1.166.593,1.157.878-.249,7.719,5.594,15.14,1.169,23.045-.692,1.236-1.8,2.416-3.242,1.911-5-1.753-7.481,1.566-10.123,4.695-1.705,2.019-3.315,4.119-5.634,5.539-.681.417-1.359,1.279-.52,2.064a1.89,1.89,0,0,0,1.821.164c4.148-3.559,8.671-1.552,13.07-.944,1.874.259,3.41.955,4.086-1.933.736-3.141,3.62-3.3,6.132-2.495,5.336,1.717,10.749,3.444,14.234,8.375.581.823,1.117,2.14,1.873,2.3,4.727,1.016,8.557,2.227,4.624,8.189-.4.607,1.282.567,2,.812,1.647.567,3.146,2.032,2.152,3.317-2.615,3.379.417,5.937.956,8.677.674,3.422,5.731,4.612,9.938,2.917.579-.233,1.409-1.257,1.446-1.22,3.773,3.678,8.78-1.279,10.367-.141,5.5,3.946,9.718.755,14.434-.487a2.974,2.974,0,0,1,1.909.18c4.577,2.256,7.85.678,9-4.555.339-1.542.45-3.053,2.277-3.529,2.033-.53,2.221,1.706,3.23,2.229,3.73,1.934,6.776,4.763,10.256,6.979,2.376,1.514,3.973,6.711,1.7,7.97-5.376,2.979-3.639,8.091-3.224,11.716.589,5.146-2.084,7.1-5.421,8.769-2.719,1.358-3.942,2.95-3.489,5.876h0c6.9.613,13.047-.52,16.563-7.794,2.532,4.9,2.341,9.747,3.2,14.359,1.423,7.676,10.175,13.647,17.8,12.791,2.992-.336,8.018-3.138,8.773,3.535.192,1.7,2.058,2.123,3.589,2.319a16.764,16.764,0,0,1,6.577,2.438c3.948,2.36,7.111.767,7.216-3.853.1-4.53,2.861-6.115,6.467-7.154,1.122-.324,2.483-.13,3.436-.685,5.965-3.477,10.711-1.265,15.645,2.5,2.851,2.177,5.346,6.749,9.713,4.782,3.565-1.606,8.208-1.26,10.626-5.407,1.115-1.912,2.5-2.4,4.739-.374,3.779,3.411,7.968,2.481,10.5-1.9,1.53-2.648,2.319-5.6,6.253-2.365,1.825,1.5,4.353.7,5.731-1.454,1.914-3,3.345-1.676,4.8.317,2.251,3.091,4.388,6.3,8.087,7.9a7.005,7.005,0,0,1,4.2,4.015c1.016,2.569,3.456,2.888,5.982,2.681,2.166-.179,3.474-1.056,3.5-3.425.019-1.513,1.223-2.2,2.255-3.12,5.291-4.737,10.733-9.039,7.779-17.993-.675-2.047.2-6.853,1.6-10.351,2.744-6.831,7.741-12.217,9.364-20.1,1.829-8.875,2.818-17.1.359-25.685-.8-2.79,1.288-6.262-1.143-8.282-3.948-3.279-2.376-8.873-5.845-12.2a2.552,2.552,0,0,1-.126-2.9c1.46-3,1.341-5.09-2.5-6.03a5.086,5.086,0,0,1-2.822-2.717c-1.38-3.115-2.645-5.6-6.975-4.852-1.942.334-2.7-2.236-3.1-4.081-.287-1.3.119-3.358-.614-3.853-5.034-3.4-2.111-7.1-.682-10.748.36-.919,1-1.642.814-2.8-1.358-8.689,2.042-16.436,5.38-24.023,1.346-3.059,1.54-5.331-.3-7.935-2.252-3.191-1.647-6.085,1.5-8.088,2.221-1.415,2.57-2.846,1.476-5.029-2.2-4.4-3.257-7.944-1.562-13.8,2.272-7.838,7.751-13.436,10.349-20.753.983-2.769,2.912-5.264,2.9-8.385a9.8,9.8,0,0,1,1.334-5.308c2.591-4.287,6.445-8.216,3.833-13.969a2.181,2.181,0,0,1,.4-1.858C1719.535,661.218,1716.86,659.384,1713.48,657.15Z" transform="translate(-506.684 -220.826)" fill="#3fa9f5"/>
      <path id="Path_5" data-name="Path 5" d="M844.679,621.644c-.63-1.414,1.018-1.893,2-2.455,1.281-.729,2.265-1.67,1.708-3.238-.62-1.743-2.028-1.631-3.313-.878-1.757,1.03-3.063.711-3.387-1.263-.439-2.674,1.683-1.413,2.931-1.84,3.712-1.273,7.165-.583,10.687.5,1.542.474,3.019.443,4.108-1.022.506-.68,1.051-1.513,1.985-1.3a12.426,12.426,0,0,0,3.829.3,54.383,54.383,0,0,0,7.155-3.607,39.445,39.445,0,0,0,3.755-4.434c4.684-6.194,11.985-8.337,18.814-11.118a11.371,11.371,0,0,0,3.565-1.851c2.986-2.817,5.4-5.876,9.858-1.451,2.011,2,8.486-2.976,8.31-6.086a7.517,7.517,0,0,1-.192-2.008c.858-3.578,2.86-6.591-.628-10.634-2.214-2.566,1.74-6.69,6.563-5.937,6.085.95,9.922-1.352,13.7-5.724,5.095-5.9,13.491-3.68,15.923,3.858,1.133,3.511,6.559,6.319,9.97,5.159,3.729-1.269,4.749-3.818,2.844-7.331-1.043-1.923-2.325-3.72-3.329-5.661-1.968-3.8-1.477-10.945,1.729-13.076,6.2-4.12,8.666-10.049,10.206-16.833.593-2.61,1.878-5.059,2.77-7.607,1.222-3.491,3.628-3.724,6.386-2.152,1.443.823,3.094,2.762,4.355,1.56,1.879-1.791,4.808-2.548,5.93-4.359,1.593-2.57,2.872-6.388,2.16-9.117-1.576-6.038,2.749-8.5,6-10.975,2.352-1.786,4.037-3.455,4.53-6.129,1.195-6.469,4.5-10.372,11.488-10.257h0c4.582-1.781,5.091-4.942,3.734-9.327-.951-3.075-2.9-8.231-.841-9.321,4.062-2.153,5.454-5.86,8.239-8.595,3.129-3.073,3.241-6.209,2.551-9.608a7.776,7.776,0,0,1,.583-5.71,5.629,5.629,0,0,0-3.782-8.238c-2.336-.467-3.439-1.746-4.675-3.372-3.02-3.971-12.788-4.63-16.326-1.021a69.72,69.72,0,0,0-7.324,8.345c-2.241,3.173-4.145,5.706-8.784,4.269-2.492-.772-5.256.365-7.762,1.639-2.076,1.055-4.359,1.672-6.616-.084-3.664-2.851-8-4.3-12.42-5.476-2.9-.767-4.97-2.141-4.513-5.582a3.472,3.472,0,0,0-2.451-3.944c-1.934-.8-3.845-1.954-4.642-3.747-4.078-9.172-12.915-7.727-19.979-7.994-8.592-.325-9.764.071-12.434-8.569-1.487-4.811-4.093-8.921-8.612-10.953-5.792-2.6-13.37-.16-18.069-6.185-8.305,1.792-4.06-4.257-3.523-6.564.717-3.081,1.243-6.22,2.023-9.289,1.464-5.756.105-9.21-5.4-10.357-3.578-.746-2.9-1.912-2.05-4.331,1.069-3.055,2.768-6.326-2.07-8.394-2.443-1.043-2.882-7.643-.794-8.813,3.623-2.029,4.664-5.075,3.442-8.517-1.352-3.807-4.905-1.69-7.547-1.807-2.154-.1-4.282.651-4.157-3.106.123-3.681-3.432-5.289-6.218-5.592-5.462-.592-10.9-.434-14.976-5.073-.675-.769-2.447-1.479-3.2-1.126-5.187,2.422-11.293-.435-16.259,2.976-1.079.741-2.549,1.993-3.459,1.724-5.4-1.6-7.176,3.175-7.887,5.891-.994,3.8-2.872,3.73-5.471,3.506-4.028-.348-7.338.6-9.452,4.351a6.5,6.5,0,0,1-3.575,2.681c-1.708.674-2.826,1.837-2.53,3.871h0c1.419,1.417,3.527,1.991,4.589,3.864,3.662,6.461,2.8,9.158-4.025,12.012-.83.347-2.74.129-2.085,1.247,3.173,5.413-2.563,9.784-1.309,15.327.979,4.331-5.044,6.429-7.216,10.176-2.074,3.578-7.068,6.179-7.653,9.726-.793,4.8-6.456,7.995-3.966,13.69.822,1.881-.342,3.586-2.755,4.591-3.528,1.471-6.944,3.1-10.781,3.573q-1.14.414-2.278.824c-2.153,3.8-6.175,2.367-9.317,3.481-7.774,2.756-14.747.026-21.934-1.6-2.783-.63-4.116-.233-3.108,2.762a7.58,7.58,0,0,1-2.459,8.982,5.785,5.785,0,0,0-1.023,1.634c-1.219,2.179-.233,5.921-4.9,5.58-2.407-.176-4.5,2.342-7.636,1.28-2.691-.912-5.8.7-8.858-.213-1.227-.364-2.684,1.49-3.218,2.836-.66,1.663.571,2.991,2.035,3.553,4.151,1.6,1.7,4.274.809,6.176-1.325,2.827-3.307.579-4.547-.3-3.678-2.6-5.392-2.212-4.976,2.636.117,1.358-.817,2.146-1.8,2.85-.692.495-1.607,1.085-.977,1.979,1.658,2.355,5.028,4.842-.994,5.883a2.26,2.26,0,0,0,.122,1.357c3.981,4.618,6.264,10.957,10.548,14.589,3.052,2.588,6.02,6.947,11.354,7.3,4.725.316,7.376,5.077,8.482,8.544,1.472,4.613,4.15,2.927,5.755,2.033,4.366-2.43,7.771-1.563,11,1.705a24.81,24.81,0,0,1,2.975,3.439c4.034,5.966,9.9,7.267,16.393,6,4.77-.928,5.351,3.606,7.419,5.551,3.24,3.045,5.238,5.565,10.687,5.477a52.41,52.41,0,0,1,11.651,1.46c2.48.567,2.67,3.292,4.166,4.756,2.485,2.431-.083,3.26-1.11,4.776-1.777,2.623-2.439,5.106,1.3,6.982,1.661.834,4.183,1.832,3.459,4.359a5.906,5.906,0,0,1-5.136,4.253c-3.307.353-6.5,2.469-10.045-.392-2.043-1.651-3.687,1.1-4.506,2.787-.928,1.914-5.021,2.782-3.244,4.878,1.47,1.735,4.858,2.042,7.842,1.86,5.379-.327,11.122-2.769,16.113.288,3.821,2.341,6.61,4.518,11.128,1.124,1.521-1.143,5.144.9,7.454,1.121,5.684.551,8.743,5.748,14.123,6.41a7.918,7.918,0,0,0,5.238-.8c2.277-1.248,4.678-1.952,6.878.281.946.96,2.064.894,3.287.7,4.964-.8,9.132,1.574,13.264,3.679,2.274,1.159,2.721,3.355,1.191,5.594a21.437,21.437,0,0,0-4.028,9.724c-.083.732-.882,2.035-1.2,1.99-5.775-.815-10.176,5.442-16.308,3.052-1.623-.633-3.687-1.344-4.557,1.982-.823,3.146-4.141,1.835-5.93,1.011-3.853-1.775-7.495-2.21-11.073.078-1.989,1.272-3.5-1.057-5.622-.088,1.058,2.684,1.515,5.661,5.612,5.271a2.479,2.479,0,0,1,2.029,1.242c.914,4.829,2.9,10.459,1.785,14.407-1.388,4.908.3,9.88-2.735,15.382a1.782,1.782,0,0,0,.33.44c1.829-1.03,2.815-1.82,3.226-1.59,5.841,3.277,10.615,1.681,15.154-2.645,1.228-1.171,2.905-.155,4.1.9,1.315,1.16.2,1.7-.448,2.754-1.944,3.17.339,9.45,3.757,11.222h0l1.908-1.2h0C843.969,627.154,846.087,624.8,844.679,621.644Z" transform="translate(-265.118 -119.947)" fill="#62baef"/>
      <path id="Path_6" data-name="Path 6" d="M318.151,211.033c2.635,4.2-.181,12.591-4.351,14.428a5.368,5.368,0,0,0-2.018,2.206,10.575,10.575,0,0,0-.892,2.863c-.6,3.131-9.876,7.435-12.551,5.873a3.112,3.112,0,0,1-1.294-2.052c-1.864-6.249-4.271-7.751-10.117-5.149-7.469,3.319-11.458,10.694-17.238,16.011-.771.711-.06,1.7.751,2,3.56,1.334,2.467,3.433,1.5,6.068-2.031,5.531.65,11.385,5.981,14.019,4.787,2.373,5.109,5,.422,7.623-5.183,2.9-9.977,5.9-13.121,11.217-2.7,4.559-2.467,7.844.838,12.082,3.547,4.539,6.892,9.172,10.975,13.315,4.754,4.814,4.868,12.5,9.909,17.378.992.959,1.267,3.258-.483,3.949-2.454.965-5.1,1.938-7.871,1.2-.556-.147-.194-.758-.215-1.193a26.367,26.367,0,0,0-2.729-9.829c-1.542-3.272-5.458-4.64-6.168-8.186-1.509-7.6-4.814-9.132-11.954-5.471-2.011,1.026-4.211,2.253-6.457-.094-2.91-3.031-5.793-7.784-10.09-1.381-.134.2-.6.268-.905.241-7.275-.644-14.294-1.368-19.624-7.677-4.345-5.129-15.635-4.733-20.027-.06-1.24,1.314-.557,2.152.751,2.648,2.9,1.106,4.338,3.46,5.867,5.987,2.172,3.6,6.879,4.291,9.5,7.583.536.671,2.119-.013,2.608-.912,2.192-4.063,3.48-3.473,4.747.6.67,2.152,2.87,4.137,4.707,3.983,2.092-.168.818-3.178,1.549-4.78.168-.382.65-.63,1.046-.992,1.334,3.131,4.532,4.754,5.35,8.274.409,1.73-1.361,2.883-.114,4.72,3.748,5.5,4.935,12.109,7.087,18.29a5.051,5.051,0,0,1-.074,4.425c-5.981,9.574-14.63,16.909-21.817,25.471-5.109,6.074-12.182,10.479-13.195,19.276-5.25.577-6.973-2.608-7.322-7.55-2.823,2.387-5.169,2.045-7.328-.328a6.393,6.393,0,0,0-4.029-1.951c-.67-.087-1.341-.168-2-.3-3.144-.637-1.857-5.88-4.794-5.565-3.225.349-5.075-.825-7.516-2.394-4.15-2.648-8.89-4.391-10.9-9.487-.141-.369-1.167-.57-1.77-.563-6.276.107-9.427-3.929-11.338-9.038-1.039-2.776-3.037-2.8-5.163-3.051-4.506-.536-8.736-1.287-9.353-7.053-.221-2.058-2.112-1.555-3.2-1.24-1.985.57-3.862,1.636-3.225,4.3.892,3.748,1.6,7.57,2.856,11.2a5.616,5.616,0,0,1-1.8,6.758c-2.407,1.944-3.332-.784-4.821-1.978-3.225-2.608-6.436-4.968-7.7-9.386-.61-2.132-3.131-2.514-5.639-1.938-5.779,1.334-13.134-2.97-14.435-8.776-.6-2.682-1.69-3.855-4.157-4.09a3.557,3.557,0,0,1-3.044-1.569c-4.164-8.166-15.072-8.092-19.464-16.038-.932-1.683-2.514-1.415-4.264-.121-3.822,2.816-7.623,1.911-9.145-2.709-2.447-7.429-3.855-15.226.536-22.494,2.159-3.58,3.346-7.724,6.557-10.748,1.656-1.549,1.227-4.143,1.281-6.316.174-7.248,3.507-12.833,8.917-17.385,2.306-1.944,4.727-2.461,7.476-.972.684.369,1.515,1.167,2.259.389.845-.878.215-1.817-.241-2.756-3.212-6.571-1.783-10.446,4.707-12.9,2.259-.851,4.117-6.638,2.179-8.991-3.708-4.5-3.594-10.674-7.7-15.092-3.124-3.359-.2-10.56,3.124-13.738,4.257-4.063,10.359-6.859,11.089-13.972.255-2.528,2.917-3.52,4.955-4.733,4.975-2.963,5.109-5.3,2.5-10.533a65.026,65.026,0,0,1-4.485-13.845,6.354,6.354,0,0,1,3.507-7.677,4.941,4.941,0,0,0,2.7-3.386c1.468-4.928,6.021-5.981,10.017-6.255,6.7-.469,12.833-4.874,13.972-11.666,1.69-10.064,3.969-12.337,17.043-11.217a4.522,4.522,0,0,0,4.029-1.254c2.4-2.246,4.164-5.377,7.858-6.021a2.083,2.083,0,0,0,1.281-1.428c1.408-8.837,8.957-12.4,14.8-17.405l.9-.778c.657-.53,1.475-.939,1.8-1.562l2.494-2.166c.751-1.757-.087-4.351-1.441-6.919,1.328-1.763,3.071-3.352,4.11-5.21.838-1.5,2.622-3.064,4.653-2.36,2.172.751,2.7,2.816,2.561,5.022a18.512,18.512,0,0,0,.148,2.226c3.848-1.26,7.851-.134,11.418-2.119,1.16-.644,3.1-.8,3.808.349,2.581,4.11,7.9,6.524,7.811,12.269a6.9,6.9,0,0,0,.034.845,5.406,5.406,0,0,0,1.884,3.607c1.4,1.294,2.943,3.272,1.79,4.874-2.736,3.815.355,5.518,2.266,7.549,2.058,2.192,4.4.939,6.959.55a27.029,27.029,0,0,0,5.236-1.522,25.786,25.786,0,0,1,5.176-1.482c2.186,2.112,4.9,3.2,7.657,4.19s5.565,1.9,7.952,3.661a3.065,3.065,0,0,0,2.91-.013c3.326-2.883,6.222-.275,8.79.945s4.64,3.634,1.542,6.792c-1.2,1.22-.476,10.178.7,11.3,2.749,2.622,8.126,1.435,9.849-2.407.637-1.421.637-2.7,2.749-2.876a92.849,92.849,0,0,0,13.973-2.414c2.863-.684,7.026-1.723,8.468.945,2.38,4.412,5.612,4.827,9.581,4.244,4.231-.617,5.665,2.293,4.6,5-1.676,4.271.556,11.043-6.852,12.236-1.16.181-1.656,1.616-1.837,2.836-.9,6.041-4.17,11.358-5.424,17.224-1.307,6.094,1.79,15.152,11.136,13.939,2.675-.349,3.674,1.059,4.284,3.165.905,3.1.168,6.121-1.079,8.877C316.474,205.562,316.261,208.009,318.151,211.033Z" transform="translate(-56.569 -45.61)" fill="#3fa9f5"/>
      <path id="Path_7" data-name="Path 7" d="M1002.4,716.967c6.067-1.8,6.42-7.246,8.233-11.711.974-2.4,1.57-3.672,4.64-2.651,3.918,1.3,8.162,1.222,11.711,4.144,1.311,1.079,4.519.881,6.372.1,8.5-3.58,15.163.8,22.316,4.186,5.5,2.6,9.737,8.036,16.555,7.7,4.113-.2,8.06,1.507,12.367.228,3.25-.966,6.558-1.106,7.739,4.247,1.7,7.712,12.106,15.112,19.785,15.3,1.415.035,2.7.048,3.583,1.349.566.837,1.074,1.73,2.348,1.547,9.738-1.393,17.253,4.926,25.841,7.518,1.913.577,2.531,2.786,4.251,4.008,6.921,4.914,14.832,1.983,22.15,3.388,2.964.569,5.14-3.055,7.313-5,3.873-3.464,7.722-4.138,12.465-2.451,3.472,1.234,6.344,4.622,10.627,3.169.121-.041.426.087.448.182,1.25,5.519,5.924,3.819,9.5,4.643,7.191,1.657,8.256,8.623,11.05,13.818,1.811,3.366,3.243,6.561,7.5,6.242,12.764-.956,22.767,4.851,31.93,12.725,2.3,1.978,3.694,3.153,6.31-.021,1.988-2.412,5.022-4.656,8.943-3.321a1.568,1.568,0,0,0,2.189-1.417c.526-3.419,2.124-6.72.108-10.3-1.311-2.329-4.358-4.545-1.337-7.909.765-.852-.393-1.859-1.661-1.339-2.016.825-3.926.5-4.853-1.331-1.18-2.334,2.009-1.663,2.483-2.871,1.113-2.839,2.328-4.907,5.854-5.87,2.894-.791,2.481-4.379-.417-5.938-3.822-2.058-5.27-7.142-10.448-7.669-2.149-.219-4.107-1.288-6.189.165-2.532,1.769-4.646.468-6.24-1.372-1.77-2.043-.252-3.916,1.251-5.269,2.64-2.378,2.189-4.215.695-7.393-2.573-5.473-.043-10.959,1.977-16.385,2.986-8.019,10.712-11.808,15.374-18.32,3.508-4.9,6.768-10.157,12.105-13.544,1.411-.9,2.581-2.427,4.291-2.521,8.394-.462,11.03-5.911,12.867-13.14,1.177-4.632,4.068-8.831,3.658-13.936-.053-.67.324-1.7,0-1.975-6.583-5.58-.516-12.414-1.814-18.571-.915-4.341-4.945-10.066-9.326-10.88h0c-2.2.868-4.209,1.655-4.981,4.457-.976,3.545-3.311,4.013-6.015,1.422-5.036-4.827-11.559-6.979-17.69-9.818a5.77,5.77,0,0,0-3.9-.6c-4.233,1.585-4.233-1.082-3.917-3.759.581-4.938-3.661-9.745-.255-14.833.46-.687-.548-2.563-1.176-3.727a28.864,28.864,0,0,1-3.083-6.852c-.425-1.739-1.28-3.749-3.732-3.348-2.02.33-2.7,1.635-3.263,3.772-1.053,3.991-5.095,8.258-7.559,8.713-5.69,1.052-7.114,2.6-5,7.766a4.688,4.688,0,0,1-.217,2.465,15.855,15.855,0,0,0,1.848,11.813c3.38,6.077.786,10.127-5.834,10.047a16.735,16.735,0,0,1-9.065-2.612c-1.619-1.061-2.656-2.663-1.323-4.192,4.9-5.624,1.016-8.635-3.167-11.637-2.623-1.883-5.911-4.815-5.629-7.158.79-6.566-4.813-9.871-6.127-15.073a10.578,10.578,0,0,0-7.754-7.682c-7.822-2.012-10.078-7.878-10.318-14.25-.182-4.841-1.856-9.136-2.524-13.732-.269-1.853-1.256-3.672-3.378-3.948-1.967-.257-4.69-.676-5.462,1.5-1.554,4.388-4.861,8.079-5.243,12.864-.194,2.429-1.646,3.817-3.057,5.611-2.029-2.067.867-6.182-2.73-6.543-6.913-.693-12.539-5.787-19.754-5.283-4.389.307-8.781-.207-10.609,5.467-.612,1.9-2.548,5.157-5.4,1.293a3.167,3.167,0,0,0-4.517-.79c-5,3.023-8.6,1.4-12.257-2.68-1.712-1.91-4.306-4.588-7.439-3.312-3.606,1.469-6.912.607-10.356,0-7.732,1-11.326,5.77-12.643,13.144-.631,3.537-4.951,4.1-7,6.7-1.417,1.795-2.336,3.1-2.433,5.912-.219,6.349-1.165,13.247-8.183,16.388-1.919.859-4.392,1.568-6.395-.909-2.248-2.781-4-1.771-4.922,1.31-1.34,4.5-3.294,8.744-3.583,13.627-.264,4.459-4.8,6.468-7.629,9.192-3.733,3.6-5.038,7.267-2.5,11.811a45.648,45.648,0,0,1,5.017,11.474c.383,1.586.411,2.879-1.19,3.256-4.343,1.025-8.627,3.073-13.187.184-2.183-1.384-4.157-2.294-4.859-5.254-.778-3.283-3.649-4.929-6.937-5.515-3.51-.626-4.729,1.92-6.447,4.306a10.863,10.863,0,0,1-9.558,4.854c-2.018-.091-4.039-.109-6.058-.169-1.507-.045-2.712.414-3,2.059a2.306,2.306,0,0,0,1.974,2.976,4.64,4.64,0,0,1,3.447,2.729c.639,1.448,1.079,3.335-1.288,3.368-3.35.046-3.792,1.9-2.969,4.311,1.292,3.783-1.112,5.256-3.714,6.685-2.826,1.551-5.531,4.667-9.01,1.405-1.678-1.574-2.467-1.692-4.371.1-3.407,3.2-7.756,5.03-12.316,6.388-6.789,2.021-11.665,6.786-15.428,12.493-1.9,2.879-3.6,4.833-7.238,3.783-2.095-.6-3.942.368-5.822.994-.606.2-1.05.846-1.631,1.178-3,1.71-8.306-3.224-9.747,4.617a55.378,55.378,0,0,1-4.07,11.834h0c2.821.29,5.655-.218,8.5.633,4.5,1.348,8.074-.369,9.83-4.62,1.3-3.151,4.823-4.167,6.019-7.262.253-.656,1.423-.776,1.637-.095,1.654,5.3,9.176,4.235,10.58,9.937.363,1.476,2.56,2.04,3.94,1.207,4.726-2.854,5.435,1.473,5.477,3.731.069,3.8,2.142,4.909,4.967,5.769,8.8,2.679,18.155,2.276,26.988,4.8h0C1000.318,720.873,999.715,717.763,1002.4,716.967Z" transform="translate(-341.881 -198.181)" fill="#92cdea"/>
      <path id="Path_8" data-name="Path 8" d="M958.8,753.651a54.307,54.307,0,0,1-7.155,3.606A11.463,11.463,0,0,0,958.8,753.651Z" transform="translate(-351.527 -266.759)" fill="#989898"/>
      <path id="Path_9" data-name="Path 9" d="M702.4,662.979c.136-1.205-.924-2.2-2.846-1.106-5.009,2.845-10.8,1.071-16.209,2.056-2.805.511-2.052-3.521-2.537-5.924-1.333-6.6,5.163-12.618,1.079-19.3-.526-.862-.176-2.333-.051-3.5.261-2.432.917-4.752-3.121-2.792-1.918.931-4.732,1.121-3.481-2.893.81-2.6-1.838-4.177-2.308-6.488-.288-1.416-.259-2.926,1.2-2.317,4.747,1.986,9.211-.37,13.8-.325a9.279,9.279,0,0,1,4.408.949c1.708.906,3.3,1.842,4.113-1.235.754-2.838,3.72-1.938,5.172-1.451,5.685,1.91,10.12-2.48,15.35-2.537,1.381-.015,1.618-1.566,1.993-2.658.436-1.273.644-2.633,1.162-3.867.888-2.116,3.979-4.659,2.575-6.068a14.174,14.174,0,0,0-8.789-4.245c-3.3-.23-6.741.665-9.693-1.88-.849-.732-2.308.113-3.268.824a8.05,8.05,0,0,1-9.114.227c-3.887-2.639-8.221-3.911-12.259-5.968-2.807-1.43-5.126-1.982-7.857.154-2.8,2.193-5.5,2.692-8.2-.813-2.226-2.89-5.691-3.131-9.254-2.434a36.425,36.425,0,0,1-15.026-.117c-1.832-.406-3.4-.953-3.539-2.957-.325-4.841,4.512-6.376,6.6-9.715,1.1-1.767,3.584-1.25,5.086-.144,3.635,2.677,6.614-.181,9.677-1.043,2.734-.768,1.526-2.611-.276-3.317-4.88-1.915-4.28-5.756-3.059-9.289,1.8-5.2.374-7.79-5.008-7.279-7.673.729-14.627-.247-19.118-7.344a9.948,9.948,0,0,0-10.891-4.55c-7.553,1.58-10.14-4.087-13.792-8.184-3.9-4.372-6.279-5.224-11.187-2.361-1.661.969-2.912.031-4.344.115-2.172.127-2.854-.9-3.653-3.079a15,15,0,0,0-8.524-8.953c-5.071-2.309-10.137-5.222-13.9-10.682-2.427-3.526-3.29-8.378-7.338-11.077-1.646-1.1-1.344-3.576-1.162-6.086.285-3.92,1.993-6.314,3.5-9.518,2.712-5.775,1.868-6.229,7.659-3.474.956.455,2.087,1.767,2.974.089.67-1.269-.732-1.574-1.443-2.2-1.842-1.624-3.687-3.616-2-6.052s3.082-4.943,7.585-4.081c3.826.732,8.277,1.218,12.532-.589,2.708-1.149,4.51-1.911,3.712-5.153a1.6,1.6,0,0,1,.958-2.088c5.316-1.407,3.281-5.205,2.844-8.491-.044-.332-.106-.935-.209-.946-6.185-.652-8.359-8.08-14.866-8.543a20.845,20.845,0,0,1-12.157-4.7c-3.957-3.255-9.32-1.092-14.007-1.413-4.2-.288-8.772.091-12.65,2.739-1.722,1.176-2.563-.745-3.012-1.727-3.132-6.851-10.125-4.866-15.386-6.659-1.285-.438-2.538,2.375-2.58,3.854-.133,4.62-3.472,6.9-6.307,9.557-1.128,1.06-2.479,1.835-1.87,3.716.567,1.753,1.917.709,2.948.921,2.593.534,4.743,7.954,3.364,10.766-1.489,3.034-4.445,4.4-6.783,6.477-3.228,2.869-5.57.172-8.19-1.1-.87-.42-2.024-.954-2.487.477-.4,1.229.613,1.851,1.544,2.26,2.9,1.271,6.109,1.2,9.118,2.774,2.011,1.049,2.281,1.853,2.366,3.479.111,2.154-.159,4.1-2.808,4.628-4.394.873-7.4,4.164-10.991,6.418-2.493,1.564-4.49,4.232-8.074,2.868a2.072,2.072,0,0,0-2.992,1.815c.163,5.526-3.883,9.108-6.306,13.243-1.845,3.149-1.077,5.209.457,7.277a5.006,5.006,0,0,1,.925,5.122c-1.863,5.273.462,13.329,5.449,15.873,3.6,1.837,3.194,3.8,1.005,5.6-2.575,2.113-3.089,4.471-3.137,7.507-.035,2.239-.479,3.942-3.409,1.3-4.292-3.862-9.281-6.946-13.937-10.41-.75-.558-1.673-.976-2.312-.538-4.043,2.776-8.066-.329-12.115-.02-1.636.125-3.225-.308-4.751.722a3.009,3.009,0,0,1-3.694.017c-5.162-3.22-13.517-.473-14.809,5.306-.585,2.615-1.828,4.837-2.473,7.328-.744,2.873-1.778,3.494-3.84.823-3.515-4.554-9.47-6.379-12.781-11.3-.705-1.049-2.674-1.57-4.124-1.719-2.15-.221-3.8-.349-4.283-3.068a3.577,3.577,0,0,0-3.318-2.785c-4.052.208-6.234-2.764-9.271-4.4-4.158-2.233-4.83-4.579-3.122-8.305,1.237-2.7.6-3.728-2.18-5.226-8.627-4.651-15.981-11.229-23.919-16.9-5.942-4.248-10.652-10.426-18.056-12.636a4,4,0,0,1-2.259-1.916c-2.67-5.921-7.8-8.725-13.57-10.293-2.469-.671-4.018-4.558-6.856-2.564-1.941,1.364-3.09,3.9-4.484,5.986-1.8,2.691-4.188,4.79-6.415,7.094-7.219,7.471-14.2,15.183-20.979,23.057-1.869,2.172-.369,5.488-.988,8.217h0a65.184,65.184,0,0,0,15.3,3.285c4.088.447,6.768,3.254,6.5,6.489-.548,6.593,3.9,10.09,7.043,14.512,2.272,3.192,8.552,5.174,3.276,10.693a.515.515,0,0,0,.052.476c1.71,2.18,1.4,5.8,4.361,6.956,2.748,1.079,9.724-1.823,10.947-4.128,1.4-2.638,4.922-3.082,5.874-.395,1.356,3.826,6.024,6.145,4.864,11.1a2.812,2.812,0,0,0,1.9,2.79c10.823,4.007,18.22,14.893,30.817,15.352a2.9,2.9,0,0,1,1.765.875C387.506,587.366,396.392,592.8,404.7,599c5.31,3.962,9.423,3.484,12.038-2.572,3.733-8.646,14.068-9.934,20.03-2.618,3.042,3.733,5.872,7.62,11.889,7.143,2.54-.2,5.071,2.074,7.382,3.953,5.874,4.774,11.425,10.059,18.27,13.511a16.207,16.207,0,0,1,5.3,4.434c3.945,4.754,8.818,9.574,15.264,8.453,7.242-1.26,14.661-1.835,21.761-4.1,8.887-2.831,8.644-2.546,12.121,5.338,2.72,6.166,5.1,12.13,3.468,19.052-.369,1.565-.149,3.3-.536,4.975-.5,2.181.131,4.507,2.744,4.407a95.894,95.894,0,0,1,12.5.817c5.9.547,13.632-4.091,17.693,4.414.27.565,1.446.8,2.247.992,6.182,1.462,12.161,3.869,18.837,2.272,3.384-.809,7.067-.43,10.617-.461,1.463-.013,3.214-.264,4,1.492,1.545,3.458,4.446,5.393,7.579,7.165,1.517.858,1.98,2.147,2.181,4.1.565,5.49,5.891,8.845,11.4,7.87a13.1,13.1,0,0,0,10.256-8.772c1.129-2.981,5.327-5.146,2.652-9.5-2.229-3.627-.43-6.273,3.823-6.12,7.6.274,15.187.671,22.776,1.079a7.007,7.007,0,0,1,2.906.754c10.664,5.838,21.787,10.836,32.033,17.44,1.366.88,2.573,2.637,4.446,1.6,1.957-1.079,1.557-3.184,1.542-5.023-.024-2.939-1-6.176,2.578-7.942C704.3,669.686,701.988,666.681,702.4,662.979Z" transform="translate(-132.684 -160.258)" fill="#92cdea"/>
      <path id="Path_10" data-name="Path 10" d="M876.278,774.548l.023-.012-.007-.015Z" transform="translate(-326.692 -273.636)" fill="#989898"/>
      <path id="Path_11" data-name="Path 11" d="M1407.27,934.053c4.086-1.442,2.726-6.049,2.808-9.128.105-3.925-.485-7.494,3.437-10.131.728-.489,2.528-3.77-1.348-3.932-.487-.02-1.347,0-1.4-.18-1.485-5.06-7.132-5.281-10.166-8.884-.021,5.665-4.471,7.561-8.133,10.1-.75.52-1.889.664-2.306-.084-2.266-4.068-5.081-1.742-7.773-.8-2.85,1-5.714,2.63-8.15-.808-.505-.714-1.535-1.2-2.19-.449-4.618,5.293-10.624.063-15.767,2.073-1.278.5-3.612-.8-5.064-1.836-3.144-2.237-5.006-10.035-3.539-13.516-6.06-1.083-6.06-1.083-2.32-8.065-3.6.2-6.025-1.548-7.733-4.325-2.431-3.953-6.786-5.057-10.5-7.036-2.812-1.5-5.546-1.508-6.855,2.294-.715,2.076-1.924,2.637-4.306,1.974-4.622-1.287-9.323-2.955-13.922.744-2.6,2.093-3.862-1.915-6.143-2.155-3.644-.386-5.585-3.562-8.345-5.4-.841-.56-1.5-1.488-.758-2.585a2.284,2.284,0,0,1,2.674-.858c2.6.611,4.476,2.293,6.28,4.093,1.52,1.517,2.781,1.639,4.039-.391.959-1.548,2.378-2.532.071-4.483-9.221-7.8-18.9-14.147-31.777-12.952a6.977,6.977,0,0,1-7.439-4.255c-1.632-3.878-4.047-7.239-6.031-10.87-2.381-4.358-4.48-5.277-9.422-3.917-2.486.685-4.143-1.7-5.375-3.466-3.462-4.959-16.944-7.62-21.186-3.383-5.627,5.621-12.1,5.391-19.28,5.326-7.35-.066-11.994-4.2-17.841-7.28a75.487,75.487,0,0,0-24.237-8.211c-8.153-1.206-18.886-1.351-23.156-11.833-1.254-3.08-4.486-4.776-5.185-8.464-.557-2.933-3.713-1.6-5.6-1.268-8.548,1.493-16.016-.29-23.659-4.7-6.349-3.664-12.29-9.02-20.526-8.9-1.609.023-2.828.865-4.039.887-4.421.08-8.8,1.964-13.2-1.921-4.94-4.355-9.868-1.726-11.1,4.841-.567,3.029-.777,6.593-5.66,5.893-1.372-.2-2.828,1.082-3.319,2.7-.6,1.973.471,3.174,2.081,4.057h0c5.006-.436,9.638,1.523,14.461,2.251a3.3,3.3,0,0,1,2.4,1.665c7.946,12.664,10.27,25.637,2.274,39.243-2.507,4.267-1.26,7.774,3.387,9.622,2.973,1.183,5.831,2.874,8.774,3.771,4.909,1.5,10.188,6,15.325.141.567-.646,1.438-.023,1.661.513,2.737,6.569,8.69,6.967,14.516,7.814,2.407.35,4.823,1.182,3.626,4.6-.607,1.73.221,2.607,1.526,3.772,2.733,2.44,8.243,2.954,6.631,8.774-.091.328.76,1.159,1.321,1.386,3.764,1.518,8.339,1.991,11.115-.292,2.723-2.239,5.152-1.82,7.808-1.987,3.669-.231,5.539.591,3.291,4.927-3.052,5.887,2.267,13.2,9.068,13.536a56.971,56.971,0,0,1,11.89,2.094,8.47,8.47,0,0,0,6.114-.617c3.736-1.547,6.466-5.884,10.35-5.578,7.145.563,12.011-2.953,17.005-6.946,6.7-5.36,13.825-7.114,21.7-2.353,3.668,2.218,5.7,4.92,4.807,9.545a81.516,81.516,0,0,0-1.253,12.035c-.261,6.171,3.92,11.423,9.37,14.125,3.558,1.765,7.739,3.258,9.215,8,.849,2.729,3.023,2.239,5.361.911,3.875-2.2,6.591-6.416,11.608-6.713a2.463,2.463,0,0,0,1.574-1.741c.51-4.737,3.692-5.262,7.618-5.715,4.574-.53,13.911,2.715,15.952,6.643,1.428,2.747,3.28,3.425,5.66,1.845,1.894-1.257,2.456-1.059,3.8.894,2.271,3.3,6.269,3.364,9.02.3,3.432-3.822,8.026-3.008,11.6-2.067,6.536,1.722,12.876,4.916,18.6,8.284,5.594,3.289,14.08,2.906,16.5,11.031.065.22.573.306.873.457,7.207,3.611,14.483,7.093,21.589,10.892,3.137,1.677,5.694,2.278,7.693-1.3.823-1.474,2.288-2.042,3.392-1.3,4.661,3.118,7.929-.026,11.89-1.781,4.119-1.826,5.529-5.486,7.938-8.524C1400.934,939.92,1401.786,935.991,1407.27,934.053Z" transform="translate(-381.19 -276.408)" fill="#62baef"/>
      <path id="Path_12" data-name="Path 12" d="M699.432,615.707c.649-1.059,1.763-1.594.448-2.754-1.192-1.051-2.87-2.067-4.1-.9-4.538,4.327-9.313,5.922-15.154,2.645-.412-.231-1.4.56-3.226,1.59q-.4.222-.843.457l-.023.012c.006-.009.01-.018.016-.027.19-.3.357-.589.519-.882,3.035-5.5,1.347-10.474,2.735-15.382,1.116-3.948-.872-9.578-1.786-14.407a2.479,2.479,0,0,0-2.029-1.242c-4.1.39-4.554-2.587-5.612-5.271,2.124-.969,3.634,1.359,5.623.088,3.579-2.288,7.22-1.854,11.073-.078,1.789.824,5.108,2.136,5.93-1.011.87-3.326,2.933-2.615,4.556-1.982,6.131,2.39,10.534-3.867,16.308-3.052.317.045,1.116-1.258,1.2-1.99A21.455,21.455,0,0,1,719.1,561.8c1.53-2.239,1.082-4.436-1.192-5.594-4.132-2.106-8.3-4.478-13.264-3.68-1.223.2-2.341.264-3.287-.7-2.2-2.233-4.6-1.529-6.878-.281a7.926,7.926,0,0,1-5.238.8c-5.38-.661-8.438-5.859-14.123-6.41-2.31-.224-5.933-2.263-7.453-1.121-4.518,3.394-7.307,1.217-11.128-1.124-4.99-3.057-10.733-.615-16.113-.288-2.985.181-6.373-.126-7.843-1.86-1.776-2.1,2.317-2.963,3.245-4.878.819-1.69,2.463-4.438,4.506-2.787,3.541,2.861,6.737.746,10.045.392a5.906,5.906,0,0,0,5.136-4.253c.723-2.528-1.8-3.525-3.46-4.359-3.736-1.877-3.075-4.359-1.3-6.982,1.027-1.516,3.6-2.345,1.11-4.776-1.5-1.464-1.687-4.189-4.166-4.756a52.4,52.4,0,0,0-11.651-1.46c-5.449.088-7.448-2.432-10.687-5.477-2.069-1.944-2.65-6.479-7.419-5.551-6.487,1.263-12.358-.038-16.393-6a24.822,24.822,0,0,0-2.975-3.439c-3.227-3.268-6.633-4.135-11-1.705-1.606.894-4.284,2.579-5.755-2.033-1.106-3.467-3.756-8.229-8.482-8.544-5.333-.356-8.3-4.715-11.354-7.3-4.284-3.633-6.567-9.971-10.548-14.589a2.261,2.261,0,0,1-.122-1.357c6.023-1.04,2.652-3.528.994-5.883-.63-.894.286-1.484.978-1.979.985-.7,1.918-1.492,1.8-2.85-.416-4.847,1.3-5.238,4.976-2.636,1.24.877,3.222,3.125,4.547.3.892-1.9,3.342-4.58-.809-6.176-1.464-.562-2.695-1.891-2.035-3.553.534-1.346,1.989-3.2,3.218-2.836,3.062.908,6.167-.7,8.858.213,3.133,1.062,5.229-1.455,7.636-1.28,4.672.341,3.685-3.4,4.9-5.58a5.784,5.784,0,0,1,1.022-1.634,7.581,7.581,0,0,0,2.459-8.982c-1.008-2.994.325-3.392,3.108-2.762,7.187,1.629,14.16,4.358,21.934,1.6,3.142-1.114,7.164.32,9.317-3.481.066-.115.135-.22.2-.345.184-.374,1.233-.376,1.892-.45.064-.007.125-.021.189-.029,3.837-.472,7.253-2.1,10.781-3.573,2.414-1.006,3.578-2.711,2.755-4.591-2.49-5.7,3.173-8.888,3.966-13.69.586-3.547,5.58-6.149,7.653-9.726,2.172-3.747,8.2-5.846,7.216-10.176-1.254-5.543,4.483-9.914,1.309-15.327-.655-1.118,1.255-.9,2.085-1.247,6.829-2.855,7.687-5.551,4.026-12.012-1.061-1.873-3.169-2.447-4.589-3.864h0a2.415,2.415,0,0,1-2.28,1.256h0c.807.574,1.618,1.14,2.418,1.723,4.17,3.035,4.461,6.892.342,9.356-3.349,2-4.07,3.584-4.127,8.137A30.156,30.156,0,0,1,649.443,371c-3.783,3.816-7.991,7.855-9.633,14.184-.921,3.551-3.146,6.589-1.931,10.636.353,1.174-1.22,1.3-1.951,1.907-4.768,3.942-12.425,1.613-16.281,7.526-.148.228-.988.123-1.461,0-5.672-1.456-11.7,4.7-17.174-.794-5.233,2.108-9.99-2.623-15.209-1.065a1.732,1.732,0,0,1-2.184-.835c-2.636-5.885-8.2-6.542-13.5-7.307-4.39-.634-7.137-5.02-10.97-5.348-7.014-.6-14.173-1.826-21.286.411-2.481.78-6.178,2.961-7.5-2.073a2.838,2.838,0,0,0-2.79-1.881c-3.1-.125-5.564-4.3-9.11-1.426-6.368-4.7-7.159,1.5-8.212,4.83-1.2,3.8-3.481,6.267-6.229,8.727-3.769,3.372-3.276,6.157,1.276,8.051a5.318,5.318,0,0,1,3.352,6.3c-.854,3.228-3.885,5.3-6.629,7.107-2.152,1.417-3.6-1.048-5.385-1.729-1.524-.581-3.129-1.69-4.735-.32a4.163,4.163,0,0,0-1.143,4.593,6.1,6.1,0,0,0,4.843,3.234c2.655.339,4.68,1.869,6.99,2.849,1.765.749,2.066,2.1.333,2.868-5.112,2.272-10.226,4.426-14.154,8.651a4.035,4.035,0,0,1-4.284.894c-4.372-1.455-5.6,1.287-5.6,4.569-.008,5.2-3.6,9.306-6.412,11.814-3.056,2.721-1.815,3.695-.835,5.8,1.542,3.314,4.218,6.461.432,10.19-.776.764-.253,2.787.726,4.207,1.807,2.619,3.029,5.678,5.027,8.118,2.253,2.75,3.655,4.352.718,8.184-3.463,4.518-2.477,4.907-6.685.746-3.223-3.188-7.117-7.252-11.542-6.595-4.69.7-9.011-.059-13.259-.835-2.711-.495-4.288,2.23-7.106.815-7.26-3.647-16.117.753-17.987,8.7a9.758,9.758,0,0,1-2.436,4.993c-2.8-2.791-6.273-4.618-9.147-7.107a81.984,81.984,0,0,0-19.64-12.942c-2.7-1.233-5.862-2.579-7.415-4.835-1.184-1.721.668-4.707,1.768-6.989,1.115-2.312-.637-2.867-2.3-3.507-6.552-2.513-12.15-6.74-17.468-11.049-7.8-6.321-15.952-12.174-23.773-18.455-1.7-1.367-4.487-.758-5.431-3.8-1.027-3.3-4.477-4.619-6.987-6.748-3.277-2.78-11.193-.924-9.6-8.893.039-.194-.369-.6-.648-.715-3.8-1.509-3.482-5.127-4.66-8.2-2.389-6.223-4.158-12.607-6.291-18.876-.915-2.687-2.831-6.35-6.3-7.171-2.654-.628-3.106,2.61-4.253,4.726-3.354-6.734-3.369-6.763-9.059-3.788-.688.359-1.218.65-1.724.027-2.682-3.3-7.679-3.871-9.376-8.52-1.075-2.946.091-6.314,3.044-5.7,3.267.676,6.8.6,9.583,3.576,4.632,4.951,10.361,7.949,17.56,7.458,2.038-.139,4.424,1.683,5.941-.816,1.945-3.2,3.47-1.584,4.894.231,3.428,4.369,7.258,4.108,11.581,1.439,4.116-2.542,7.3-.833,7.74,4.136.139,1.586.178,3.008,1.691,3.944,5.126,3.172,6.1,8.458,6.645,13.777.174,1.711.244,3.232,2.012,3.481,4.059.572,8.666.772,11.317-2.5,2.38-2.938.512-6.367-2.272-8.893a5.55,5.55,0,0,1-1.49-2.59c-2.179-8.263-8-14.127-13.391-20.216-8.194-9.252-8.184-11.58.439-20.342a8.786,8.786,0,0,1,3.607-2.528c3.428-1.129,6.048-3.57,8.772-5.815,1.411-1.163,1.934-3.09.329-3.726-2.53-1-3.742-3.362-5.872-4.55-5.325-2.97-6.733-6.432-4.233-12.309.733-1.722,1.135-3.587.253-4.825-1.845-2.591-.78-4.229.96-6.061a77.048,77.048,0,0,1,11.521-10.276c3.071-2.148,6.55-1.01,7.329,1.964,1.439,5.494,4.064,5.928,9.47,4.7,6.1-1.389,9.682-3.863,10.039-10.255.025-.45.469-.877.719-1.315l-1.228-1.142h0c-1.9,1.155-2.515,3.024-2.907,5.065-.6,3.133-9.877,7.436-12.554,5.872a3.082,3.082,0,0,1-1.293-2.05c-1.864-6.246-4.274-7.746-10.122-5.148-7.465,3.316-11.456,10.695-17.234,16.013-.771.71-.059,1.7.75,2,3.557,1.335,2.467,3.43,1.5,6.066-2.036,5.531.65,11.384,5.982,14.023,4.786,2.369,5.106,4.995.419,7.618-5.18,2.9-9.972,5.9-13.118,11.217-2.7,4.56-2.472,7.846.836,12.082,3.545,4.54,6.891,9.171,10.977,13.314,4.752,4.818,4.865,12.505,9.909,17.38.991.957,1.265,3.258-.481,3.948-2.458.969-5.1,1.939-7.877,1.2-.556-.147-.189-.757-.215-1.195a26.365,26.365,0,0,0-2.725-9.828c-1.541-3.277-5.459-4.64-6.166-8.19-1.512-7.592-4.819-9.128-11.958-5.47-2.009,1.029-4.207,2.253-6.457-.095-2.906-3.031-5.79-7.783-10.089-1.379-.133.2-.605.264-.906.237-7.276-.644-14.29-1.368-19.625-7.671-4.342-5.13-15.632-4.739-20.027-.064-1.24,1.318-.555,2.15.751,2.648,2.9,1.108,4.343,3.46,5.869,5.987,2.172,3.6,6.878,4.294,9.5,7.581.536.671,2.12-.012,2.605-.911,2.193-4.064,3.479-3.468,4.747.6.671,2.152,2.871,4.138,4.708,3.986,2.1-.174.821-3.182,1.547-4.786.173-.382.651-.626,1.051-.988,1.331,3.131,4.532,4.753,5.351,8.271.4,1.733-1.364,2.884-.117,4.719,3.747,5.509,4.933,12.109,7.088,18.291a5.064,5.064,0,0,1-.078,4.429c-5.978,9.573-14.626,16.906-21.818,25.467-5.106,6.078-12.178,10.483-13.189,19.279h0a2.917,2.917,0,0,0,3,2.19h0c.619-2.729-.881-6.045.988-8.217,6.777-7.875,13.759-15.587,20.979-23.057,2.227-2.3,4.616-4.4,6.415-7.094,1.395-2.085,2.543-4.622,4.484-5.986,2.838-1.993,4.387,1.893,6.856,2.564,5.773,1.568,10.9,4.373,13.57,10.293a4,4,0,0,0,2.259,1.915c7.4,2.21,12.114,8.387,18.056,12.636,7.938,5.675,15.293,12.253,23.919,16.9,2.779,1.5,3.417,2.526,2.18,5.226-1.708,3.726-1.035,6.072,3.122,8.305,3.037,1.631,5.218,4.6,9.27,4.4a3.576,3.576,0,0,1,3.318,2.785c.48,2.718,2.133,2.847,4.283,3.068,1.45.149,3.418.67,4.124,1.719,3.311,4.92,9.265,6.745,12.781,11.3,2.062,2.671,3.1,2.05,3.84-.823.645-2.49,1.889-4.711,2.473-7.327,1.292-5.78,9.647-8.526,14.809-5.306a3.009,3.009,0,0,0,3.694-.017c1.526-1.03,3.115-.6,4.751-.722,4.05-.309,8.072,2.8,12.115.02.639-.439,1.562-.02,2.312.538,4.656,3.464,9.646,6.548,13.937,10.41,2.931,2.638,3.374.934,3.409-1.3.048-3.036.563-5.395,3.137-7.507,2.189-1.8,2.595-3.759-1.005-5.6-4.986-2.544-7.311-10.6-5.449-15.873a5.005,5.005,0,0,0-.925-5.122c-1.534-2.068-2.3-4.129-.457-7.277,2.424-4.135,6.469-7.717,6.306-13.243a2.072,2.072,0,0,1,2.992-1.815c3.584,1.364,5.581-1.3,8.074-2.868,3.594-2.254,6.6-5.545,10.991-6.418,2.649-.526,2.919-2.473,2.808-4.628-.084-1.626-.353-2.43-2.365-3.479-3.01-1.57-6.219-1.5-9.118-2.774-.931-.408-1.942-1.031-1.544-2.259.463-1.431,1.617-.9,2.487-.477,2.619,1.267,4.962,3.964,8.19,1.1,2.339-2.078,5.295-3.442,6.783-6.477,1.379-2.812-.77-10.233-3.364-10.766-1.032-.212-2.381.832-2.948-.921-.609-1.881.742-2.656,1.87-3.716,2.835-2.662,6.174-4.937,6.307-9.557.042-1.478,1.3-4.291,2.58-3.854,5.261,1.793,12.254-.192,15.386,6.659.449.983,1.289,2.9,3.012,1.727,3.879-2.648,8.446-3.026,12.65-2.739,4.687.32,10.05-1.842,14.007,1.413a20.847,20.847,0,0,0,12.157,4.7c6.508.463,8.681,7.891,14.866,8.543.1.011.165.614.209.946.438,3.286,2.473,7.083-2.844,8.491a1.6,1.6,0,0,0-.958,2.088c.8,3.242-1,4-3.712,5.153-4.255,1.806-8.705,1.321-12.532.589-4.5-.862-5.9,1.645-7.585,4.081s.159,4.428,2,6.052c.711.627,2.113.931,1.443,2.2-.887,1.679-2.018.367-2.974-.088-5.791-2.755-4.946-2.3-7.659,3.474-1.505,3.2-3.213,5.6-3.5,9.518-.182,2.512-.485,4.989,1.162,6.087,4.048,2.7,4.91,7.551,7.338,11.077,3.759,5.46,8.825,8.372,13.9,10.682A14.991,14.991,0,0,1,580,485.712c.8,2.177,1.481,3.205,3.653,3.079,1.432-.084,2.683.854,4.344-.115,4.909-2.864,7.291-2.011,11.187,2.361,3.651,4.1,6.238,9.764,13.792,8.184a9.95,9.95,0,0,1,10.891,4.55c4.491,7.1,11.444,8.073,19.118,7.344,5.382-.512,6.8,2.081,5.008,7.279-1.22,3.533-1.82,7.374,3.059,9.289,1.8.707,3.01,2.549.276,3.318-3.063.861-6.042,3.719-9.677,1.042-1.5-1.106-3.983-1.622-5.086.144-2.085,3.338-6.921,4.873-6.6,9.715.135,2,1.708,2.552,3.539,2.957a36.425,36.425,0,0,0,15.027.117c3.563-.7,7.028-.456,9.254,2.434,2.7,3.5,5.394,3.006,8.2.813,2.731-2.136,5.049-1.584,7.857-.154,4.038,2.057,8.372,3.329,12.26,5.968a8.049,8.049,0,0,0,9.114-.227c.959-.711,2.418-1.556,3.268-.824,2.952,2.545,6.394,1.65,9.693,1.88a14.176,14.176,0,0,1,8.788,4.245c1.4,1.409-1.687,3.953-2.575,6.068-.518,1.234-.725,2.594-1.162,3.867-.375,1.092-.612,2.644-1.993,2.658-5.23.057-9.665,4.447-15.35,2.537-1.452-.488-4.418-1.388-5.172,1.451-.817,3.077-2.406,2.141-4.113,1.235a9.281,9.281,0,0,0-4.408-.949c-4.585-.046-9.049,2.311-13.8.325-1.456-.609-1.485.9-1.2,2.317.47,2.311,3.118,3.889,2.308,6.488-1.252,4.014,1.563,3.824,3.481,2.893,4.038-1.96,3.382.36,3.121,2.792-.125,1.169-.475,2.64.051,3.5,4.083,6.685-2.412,12.705-1.079,19.3.485,2.4-.268,6.434,2.537,5.924,5.41-.986,11.2.79,16.209-2.056,1.922-1.091,2.982-.1,2.846,1.106-.416,3.7,1.9,6.707,2.1,10.186l4.419-1.826h0C699.771,625.156,697.488,618.876,699.432,615.707Z" transform="translate(-126.951 -115.848)" fill="#fbfbfb"/>
      <path id="Path_13" data-name="Path 13" d="M1412.9,864.542c-3.48-2.213-6.53-5.042-10.258-6.979-1.012-.523-1.2-2.756-3.232-2.226-1.823.476-1.937,1.985-2.273,3.527-1.153,5.236-4.425,6.812-9,4.552a3.014,3.014,0,0,0-1.911-.181c-4.713,1.247-8.931,4.438-14.428.489-1.589-1.14-6.6,3.822-10.372.141-.06,0-.871.992-1.441,1.22-4.211,1.7-9.266.5-9.943-2.917-.536-2.742-3.567-5.3-.952-8.676.992-1.287-.51-2.749-2.152-3.319-.717-.248-2.4-.208-2-.811,3.936-5.96.107-7.174-4.626-8.193-.751-.161-1.287-1.475-1.87-2.3-3.486-4.928-8.9-6.658-14.234-8.374-2.514-.811-5.4-.644-6.135,2.494-.677,2.89-2.213,2.192-4.083,1.931-4.4-.6-8.924-2.615-13.074.945a1.871,1.871,0,0,1-1.817-.161c-.838-.784-.161-1.649.523-2.065,2.313-1.421,3.922-3.52,5.632-5.538,2.642-3.131,5.122-6.45,10.124-4.693,1.435.5,2.548-.677,3.238-1.911,4.425-7.912-1.415-15.327-1.167-23.051.007-.281-.711-.684-1.16-.878-3.674-1.6-2.206-3.634.242-4.009,4.68-.724,4.331-4.961,5.538-7.59,1.046-2.286-2.347-3.466-4.425-4.5a4.177,4.177,0,0,1-1.6-1.16c-3.574-5.176-10.774-8.005-16.225-6.108-1.448.5-2.7.8-3.567-.543s.409-2.3,1.254-2.923c2.95-2.159,3.279-4.626,1.757-7.851-3.017-6.43-.2-19.021,5.377-23.594a74.011,74.011,0,0,0,15.648-17.218c2.514-3.882,6.731-8.535,11.706-8.5,7.637.054,9.8-5.645,11.793-10.265a91.462,91.462,0,0,0,4.794-13.59c.825-3.238,1.629-7.891-1-10.285-2.253-2.052-1.85-3.326-1.368-5.471,2.528-11.264-.06-17.989-9-23.714-.657.925-1.321,1.85-1.978,2.776a10.743,10.743,0,0,1,5.96,4.117,17.134,17.134,0,0,1,3.366,6.765c1.294,6.155-4.774,12.994,1.81,18.572.322.275-.054,1.3,0,1.971.409,5.109-2.481,9.306-3.661,13.939-1.837,7.228-4.472,12.679-12.866,13.141-1.71.094-2.876,1.623-4.291,2.521-5.337,3.386-8.6,8.642-12.1,13.543-4.667,6.51-12.39,10.3-15.374,18.317-2.025,5.431-4.552,10.915-1.978,16.386,1.495,3.178,1.944,5.015-.7,7.4-1.5,1.354-3.017,3.225-1.247,5.27,1.589,1.837,3.708,3.138,6.235,1.368,2.085-1.448,4.043-.382,6.188-.161,5.182.523,6.631,5.612,10.452,7.67,2.9,1.555,3.312,5.142.416,5.934-3.527.966-4.74,3.031-5.853,5.873-.476,1.207-3.668.536-2.488,2.87.932,1.837,2.843,2.159,4.854,1.334,1.267-.523,2.427.483,1.663,1.334-3.024,3.366.027,5.585,1.334,7.911,2.018,3.58.422,6.879-.107,10.3a1.567,1.567,0,0,1-2.186,1.422c-3.922-1.334-6.953.905-8.944,3.319-2.615,3.171-4.009,2-6.309.02-9.165-7.871-19.169-13.677-31.928-12.725-4.257.322-5.692-2.876-7.5-6.242-2.8-5.189-3.862-12.162-11.049-13.818-3.574-.825-8.254.878-9.5-4.64-.02-.094-.328-.221-.449-.181-4.284,1.448-7.154-1.938-10.627-3.171-4.74-1.683-8.589-1.012-12.464,2.454-2.172,1.944-4.351,5.565-7.315,4.995-7.315-1.4-15.226,1.529-22.145-3.386-1.723-1.22-2.34-3.433-4.258-4.009-8.582-2.595-16.1-8.91-25.84-7.516-1.274.181-1.777-.711-2.347-1.549-.878-1.3-2.165-1.314-3.58-1.348-7.683-.188-18.089-7.59-19.785-15.3-1.187-5.357-4.492-5.216-7.744-4.251-4.3,1.281-8.254-.429-12.363-.228-6.819.335-11.056-5.1-16.554-7.7-7.154-3.386-13.818-7.764-22.32-4.19-1.85.784-5.062.979-6.369-.1-3.547-2.917-7.791-2.836-11.713-4.143-3.071-1.019-3.667.255-4.64,2.655-1.817,4.465-2.165,9.916-8.233,11.706-2.689.8-2.085,3.909-2.1,6.255a2.646,2.646,0,0,0,2.461,1.18c.6,0,1.234-.081,1.83-.06-1.3-.717-2.246-1.636-2.246-3a3.69,3.69,0,0,1,.168-1.059c.489-1.616,1.944-2.9,3.319-2.7,4.881.7,5.089-2.863,5.659-5.893,1.227-6.57,6.162-9.2,11.1-4.841,4.405,3.882,8.783,2,13.2,1.918,1.214-.02,2.434-.865,4.043-.885,8.233-.114,14.174,5.243,20.523,8.9,7.643,4.412,15.112,6.2,23.661,4.7,1.891-.329,5.049-1.663,5.605,1.267.7,3.688,3.929,5.384,5.183,8.468,4.271,10.479,15.005,10.627,23.158,11.834a75.521,75.521,0,0,1,24.237,8.206c5.846,3.084,10.493,7.214,17.841,7.281,7.181.067,13.651.3,19.282-5.323,4.237-4.237,17.721-1.576,21.18,3.379,1.233,1.763,2.89,4.15,5.377,3.466,4.941-1.361,7.04-.443,9.42,3.922,1.985,3.627,4.4,6.986,6.034,10.868a6.969,6.969,0,0,0,7.435,4.251c12.873-1.193,22.554,5.149,31.78,12.953,2.306,1.951.885,2.937-.074,4.485-1.254,2.031-2.514,1.911-4.036.389-1.8-1.8-3.681-3.48-6.282-4.09a2.283,2.283,0,0,0-2.675.858c-.737,1.093-.08,2.025.758,2.581,2.762,1.837,4.707,5.015,8.347,5.4,2.279.241,3.54,4.244,6.141,2.152,4.6-3.7,9.306-2.031,13.926-.744,2.38.664,3.594.1,4.3-1.971,1.307-3.8,4.043-3.795,6.859-2.293,3.714,1.978,8.066,3.078,10.5,7.033,1.71,2.776,4.13,4.519,7.73,4.324-3.741,6.979-3.741,6.979,2.32,8.066-1.468,3.48.4,11.277,3.54,13.517,1.448,1.032,3.788,2.333,5.062,1.837,5.143-2.011,11.15,3.218,15.769-2.078.657-.744,1.683-.261,2.186.449,2.441,3.439,5.3,1.8,8.153.811,2.7-.945,5.511-3.265,7.771.8.422.751,1.555.6,2.306.087,3.667-2.541,8.113-4.432,8.133-10.1,3.037,3.6,8.683,3.822,10.171,8.884.053.181.911.154,1.394.174,3.882.168,2.079,3.446,1.354,3.936-3.929,2.635-3.332,6.208-3.439,10.131-.081,3.077,1.274,7.684-2.809,9.125-5.484,1.938-6.336,5.867-6.316,10.667.844-.7,1.689-1.415,2.541-2.119a7.667,7.667,0,0,1-.094-1.133c0-2.226,1.234-3.573,3.58-4.747,3.339-1.663,6.007-3.62,5.417-8.77-.409-3.621-2.152-8.736,3.225-11.713C1416.868,871.253,1415.273,866.057,1412.9,864.542ZM1291.5,831.22c1.247.282,2.025,1,2.541,2.689C1292.4,833.439,1291.163,833.2,1291.5,831.22Z" transform="translate(-380.162 -232.684)" fill="#fbfbfb"/>
      <path id="Path_14" data-name="Path 14" d="M934.235,696.282c.581-.331,1.025-.976,1.631-1.178,1.879-.626,3.727-1.6,5.822-.994,3.64,1.05,5.34-.9,7.238-3.783,3.763-5.707,8.639-10.471,15.428-12.493,4.56-1.358,8.909-3.188,12.317-6.388,1.9-1.787,2.693-1.669,4.371-.1,3.478,3.262,6.184.146,9.01-1.405,2.6-1.429,5.007-2.9,3.714-6.685-.823-2.41-.381-4.265,2.969-4.311,2.367-.033,1.926-1.919,1.288-3.368a4.64,4.64,0,0,0-3.447-2.729,2.305,2.305,0,0,1-1.974-2.976c.285-1.645,1.49-2.1,3-2.059,2.02.06,4.04.079,6.058.169a10.86,10.86,0,0,0,9.558-4.853c1.719-2.385,2.937-4.931,6.447-4.306,3.289.587,6.159,2.233,6.937,5.515.7,2.959,2.675,3.87,4.859,5.254,4.56,2.89,8.844.841,13.188-.184,1.6-.377,1.572-1.67,1.189-3.257a45.633,45.633,0,0,0-5.016-11.474c-2.538-4.543-1.232-8.214,2.5-11.811,2.826-2.723,7.365-4.733,7.629-9.192.288-4.884,2.243-9.132,3.583-13.627.919-3.081,2.673-4.091,4.922-1.31,2,2.477,4.477,1.767,6.395.909,7.018-3.141,7.964-10.04,8.183-16.388.1-2.809,1.016-4.117,2.433-5.912,2.051-2.6,6.37-3.161,7-6.7,1.318-7.374,4.911-12.141,12.643-13.144l-2.2-.983h0c-6.987-.115-10.293,3.787-11.488,10.257-.493,2.674-2.178,4.343-4.53,6.129-3.254,2.471-7.579,4.937-6,10.975.712,2.729-.567,6.547-2.16,9.117-1.121,1.81-4.051,2.568-5.93,4.359-1.261,1.2-2.912-.737-4.355-1.56-2.759-1.572-5.164-1.339-6.386,2.152-.892,2.549-2.179,5-2.77,7.607-1.54,6.784-4.009,12.713-10.206,16.833-3.205,2.131-3.7,9.274-1.729,13.076,1,1.942,2.286,3.738,3.329,5.661,1.906,3.512.885,6.062-2.844,7.331-3.411,1.161-8.837-1.647-9.97-5.159-2.432-7.537-10.828-9.76-15.923-3.858-3.773,4.371-7.611,6.674-13.7,5.724-4.822-.753-8.777,3.371-6.563,5.937,3.489,4.044,1.487,7.056.628,10.634a7.554,7.554,0,0,0,.192,2.008c.177,3.111-6.3,8.082-8.31,6.086-4.459-4.424-6.872-1.366-9.858,1.452a11.365,11.365,0,0,1-3.565,1.85c-6.829,2.781-14.131,4.923-18.815,11.118a39.424,39.424,0,0,1-3.755,4.434,11.467,11.467,0,0,1-7.155,3.607,12.423,12.423,0,0,1-3.829-.3c-.934-.212-1.48.621-1.985,1.3-1.089,1.465-2.567,1.5-4.109,1.022-3.522-1.083-6.975-1.773-10.687-.5-1.248.428-3.37-.833-2.931,1.84.325,1.974,1.631,2.293,3.387,1.263,1.285-.754,2.694-.865,3.314.878.557,1.568-.427,2.508-1.708,3.238-.985.561-2.633,1.041-2,2.455,1.407,3.158-.71,5.51-1.415,8.186h0l2.344,1.053h0a55.391,55.391,0,0,0,4.07-11.834C925.93,693.058,931.237,697.992,934.235,696.282Z" transform="translate(-339.928 -201.798)" fill="#fafafa"/>
      <path id="Path_15" data-name="Path 15" d="M346.942,138.2c3.325-2.881,6.216-.274,8.786.947s4.639,3.633,1.544,6.79c-1.2,1.224-.477,10.18.7,11.3,2.744,2.625,8.121,1.438,9.845-2.409.637-1.421.642-2.695,2.75-2.87a93.314,93.314,0,0,0,13.973-2.416c2.865-.687,7.03-1.726,8.469.942,2.381,4.417,5.614,4.827,9.583,4.248,4.231-.618,5.661,2.295,4.6,5-1.679,4.272.556,11.039-6.849,12.232-1.161.187-1.658,1.622-1.84,2.842-.9,6.04-4.17,11.354-5.427,17.223-1.3,6.09,1.794,15.147,11.142,13.937,2.669-.345,3.671,1.062,4.284,3.165.9,3.1.163,6.123-1.08,8.878-1.358,3.01-1.571,5.457.322,8.479,2.632,4.2-.186,12.589-4.351,14.43h0l1.228,1.142c2.569.471,4.3-.474,4.8-3.093.574-2.971,2.176-6.416,1.251-8.872-2.41-6.4-.143-12.206.542-18.3.573-5.094-2.363-8.253-6.581-8.2-7.33.1-11.359-5.39-9.1-12.3,1.56-4.768,4.292-9.139,4.654-14.323a3.558,3.558,0,0,1,3.573-3.566,3.534,3.534,0,0,0,3.519-3.027c.791-3.428,1.771-6.834,2.262-10.306.944-6.673-.152-7.891-6.921-7.408-3.332.238-5.911-.113-7.351-3.551-.86-2.054-2.314-2.351-4.76-2.431-7.1-.234-13.63,2.473-20.526,3.088-2.284.2-4.665.66-4.617,4.125.025,1.785-1.45,2.868-3.6,2.359-1.815-.43-1.915-1.312-2.058-3.125-.238-3-1.656-5.889,1.195-8.473.4-.362.121-1.634-.051-2.44-1.022-4.791-8.361-8.809-13.028-7.071-1.256.468-2.546,1.649-3.746.636-4-3.376-9.45-3.476-13.661-6.3h0l-2,.876h0c4.376,4.23,10.839,4.331,15.605,7.851A3.06,3.06,0,0,0,346.942,138.2Z" transform="translate(-146.155 -61.076)" fill="#fafafa"/>
      <path id="Path_16" data-name="Path 16" d="M1415.793,920.17c-.332,1.987.9,2.217,2.542,2.684C1417.824,921.168,1417.047,920.453,1415.793,920.17Z" transform="translate(-504.463 -321.633)" fill="#e4e4e4"/>
    </g>
    <path id="Path_17" data-name="Path 17" d="M252.83,79.47a3.726,3.726,0,0,1-1.254,2.266L214.54,79.873l.9-.778,1.8-1.562,2.494-2.166c.751-1.757-.087-4.351-1.441-6.919a51.555,51.555,0,0,0-5.934-8.5c-6.7-3.352-4.693-7.375-4.693-7.375-6.034-3.352-4.023-6.7-4.023-6.7s-4.023.67-3.352-1.341-2.682-3.352-2.682-3.352l-4.693-.67-.67-1.341-3.352-.67V32.457s-4.023-2.682-4.023-6.7-2.682-4.693-2.682-4.693c-1.341.67-4.693.67-4.693.67a13.7,13.7,0,0,1-3.352,3.352c-2.011,1.341-4.358,1.006-4.358-1.006s2.682-4.023,2.682-4.023l2.682-.67a4.764,4.764,0,0,1,4.023-2.682c2.682-1.341,5.364.67,5.364.67,0,1.341,3.352,3.352,3.352,3.352,3.232-1.294,7.08,4.888,7.362,5.337-.074-.181-.436-1.26,2.025-.644C199.951,26.088,208,36.145,208,36.145c-.67,1.341,2.682,4.693,2.682,4.693a2.707,2.707,0,0,1,3.352,2.011c5.27-1.757,5.94,1.6,6.021,2.481.141-.121.717-.194,2.7.2,3.352.67,6.034,4.023,6.034,4.023-.67,2.011.67,2.682.67,2.682,2.011-2.011,10.057-.67,12.068,1.341a8.18,8.18,0,0,0,2.328,1.714.9.9,0,0,1,.447,1.187,13.538,13.538,0,0,0-.764,4.473c3.352,2.011,0,3.352,0,3.352L248.224,69C252.663,74.174,253.225,77.513,252.83,79.47Z" transform="translate(-37.307 0)" fill="#3fa9f5"/>
  </g>
</svg>
